<svg width="1411" height="127" viewBox="0 0 1411 127" fill="none" xmlns="http://www.w3.org/2000/svg">
<line x1="23.5" y1="36" x2="23.5" y2="126" stroke="#A9A9A9"/>
<line x1="43.5" y1="36" x2="43.5" y2="126" stroke="#A9A9A9"/>
<line x1="63.5" y1="36" x2="63.5" y2="126" stroke="#A9A9A9"/>
<line x1="83.5" y1="36" x2="83.5" y2="126" stroke="#A9A9A9"/>
<line x1="103" y1="25.9975" x2="103" y2="126.002" stroke="#A9A9A9"/>
<line x1="203.5" y1="16" x2="203.5" y2="126" stroke="#A9A9A9"/>
<line x1="123.5" y1="36" x2="123.5" y2="126" stroke="#A9A9A9"/>
<line x1="143.5" y1="36" x2="143.5" y2="126" stroke="#A9A9A9"/>
<line x1="163.5" y1="36" x2="163.5" y2="126" stroke="#A9A9A9"/>
<line x1="183.5" y1="36" x2="183.5" y2="126" stroke="#A9A9A9"/>
<line x1="3.5" y1="16" x2="3.5" y2="126" stroke="#A9A9A9"/>
<line x1="223.5" y1="36" x2="223.5" y2="126" stroke="#A9A9A9"/>
<line x1="243.5" y1="36" x2="243.5" y2="126" stroke="#A9A9A9"/>
<line x1="263.5" y1="36" x2="263.5" y2="126" stroke="#A9A9A9"/>
<line x1="283.5" y1="36" x2="283.5" y2="126" stroke="#A9A9A9"/>
<line x1="303" y1="25.9975" x2="303" y2="126.002" stroke="#A9A9A9"/>
<line x1="403.5" y1="16" x2="403.5" y2="126" stroke="#A9A9A9"/>
<line x1="323.5" y1="36" x2="323.5" y2="126" stroke="#A9A9A9"/>
<line x1="343.5" y1="36" x2="343.5" y2="126" stroke="#A9A9A9"/>
<line x1="363.5" y1="36" x2="363.5" y2="126" stroke="#A9A9A9"/>
<line x1="383.5" y1="36" x2="383.5" y2="126" stroke="#A9A9A9"/>
<line x1="203.5" y1="16" x2="203.5" y2="126" stroke="#A9A9A9"/>
<line x1="423.5" y1="36" x2="423.5" y2="126" stroke="#A9A9A9"/>
<line x1="443.5" y1="36" x2="443.5" y2="126" stroke="#A9A9A9"/>
<line x1="463.5" y1="36" x2="463.5" y2="126" stroke="#A9A9A9"/>
<line x1="483.5" y1="36" x2="483.5" y2="126" stroke="#A9A9A9"/>
<line x1="503" y1="25.9975" x2="503" y2="126.002" stroke="#A9A9A9"/>
<line x1="603.5" y1="16" x2="603.5" y2="126" stroke="#A9A9A9"/>
<line x1="523.5" y1="36" x2="523.5" y2="126" stroke="#A9A9A9"/>
<line x1="543.5" y1="36" x2="543.5" y2="126" stroke="#A9A9A9"/>
<line x1="563.5" y1="36" x2="563.5" y2="126" stroke="#A9A9A9"/>
<line x1="583.5" y1="36" x2="583.5" y2="126" stroke="#A9A9A9"/>
<line x1="403.5" y1="16" x2="403.5" y2="126" stroke="#A9A9A9"/>
<line x1="623.5" y1="36" x2="623.5" y2="126" stroke="#A9A9A9"/>
<line x1="643.5" y1="36" x2="643.5" y2="126" stroke="#A9A9A9"/>
<line x1="663.5" y1="36" x2="663.5" y2="126" stroke="#A9A9A9"/>
<line x1="683.5" y1="36" x2="683.5" y2="126" stroke="#A9A9A9"/>
<line x1="703" y1="25.9975" x2="703" y2="126.002" stroke="#A9A9A9"/>
<line x1="803.5" y1="16" x2="803.5" y2="126" stroke="#A9A9A9"/>
<line x1="723.5" y1="36" x2="723.5" y2="126" stroke="#A9A9A9"/>
<line x1="743.5" y1="36" x2="743.5" y2="126" stroke="#A9A9A9"/>
<line x1="763.5" y1="36" x2="763.5" y2="126" stroke="#A9A9A9"/>
<line x1="783.5" y1="36" x2="783.5" y2="126" stroke="#A9A9A9"/>
<line x1="603.5" y1="16" x2="603.5" y2="126" stroke="#A9A9A9"/>
<line x1="823.5" y1="36" x2="823.5" y2="126" stroke="#A9A9A9"/>
<line x1="843.5" y1="36" x2="843.5" y2="126" stroke="#A9A9A9"/>
<line x1="863.5" y1="36" x2="863.5" y2="126" stroke="#A9A9A9"/>
<line x1="883.5" y1="36" x2="883.5" y2="126" stroke="#A9A9A9"/>
<line x1="903" y1="25.9975" x2="903" y2="126.002" stroke="#A9A9A9"/>
<line x1="1003.5" y1="16" x2="1003.5" y2="126" stroke="#A9A9A9"/>
<line x1="923.5" y1="36" x2="923.5" y2="126" stroke="#A9A9A9"/>
<line x1="943.5" y1="36" x2="943.5" y2="126" stroke="#A9A9A9"/>
<line x1="963.5" y1="36" x2="963.5" y2="126" stroke="#A9A9A9"/>
<line x1="983.5" y1="36" x2="983.5" y2="126" stroke="#A9A9A9"/>
<line x1="803.5" y1="16" x2="803.5" y2="126" stroke="#A9A9A9"/>
<line x1="1023.5" y1="36" x2="1023.5" y2="126" stroke="#A9A9A9"/>
<line x1="1043.5" y1="36" x2="1043.5" y2="126" stroke="#A9A9A9"/>
<line x1="1063.5" y1="36" x2="1063.5" y2="126" stroke="#A9A9A9"/>
<line x1="1083.5" y1="36" x2="1083.5" y2="126" stroke="#A9A9A9"/>
<line x1="1103" y1="25.9975" x2="1103" y2="126.002" stroke="#A9A9A9"/>
<line x1="1203.5" y1="16" x2="1203.5" y2="126" stroke="#A9A9A9"/>
<line x1="1123.5" y1="36" x2="1123.5" y2="126" stroke="#A9A9A9"/>
<line x1="1143.5" y1="36" x2="1143.5" y2="126" stroke="#A9A9A9"/>
<line x1="1163.5" y1="36" x2="1163.5" y2="126" stroke="#A9A9A9"/>
<line x1="1183.5" y1="36" x2="1183.5" y2="126" stroke="#A9A9A9"/>
<line x1="1003.5" y1="16" x2="1003.5" y2="126" stroke="#A9A9A9"/>
<line x1="1223.5" y1="36" x2="1223.5" y2="126" stroke="#A9A9A9"/>
<line x1="1243.5" y1="36" x2="1243.5" y2="126" stroke="#A9A9A9"/>
<line x1="1263.5" y1="36" x2="1263.5" y2="126" stroke="#A9A9A9"/>
<line x1="1283.5" y1="36" x2="1283.5" y2="126" stroke="#A9A9A9"/>
<line x1="1303" y1="25.9975" x2="1303" y2="126.002" stroke="#A9A9A9"/>
<line x1="1403.5" y1="16" x2="1403.5" y2="126" stroke="#A9A9A9"/>
<line x1="1323.5" y1="36" x2="1323.5" y2="126" stroke="#A9A9A9"/>
<line x1="1343.5" y1="36" x2="1343.5" y2="126" stroke="#A9A9A9"/>
<line x1="1363.5" y1="36" x2="1363.5" y2="126" stroke="#A9A9A9"/>
<line x1="1383.5" y1="36" x2="1383.5" y2="126" stroke="#A9A9A9"/>
<line x1="1203.5" y1="16" x2="1203.5" y2="126" stroke="#A9A9A9"/>
<line x1="1403.5" y1="16" x2="1403.5" y2="126" stroke="#A9A9A9"/>
<path d="M5.625 0.617188V1.84375H5.35938C4.23438 1.86458 3.33854 2.19792 2.67188 2.84375C2.00521 3.48958 1.61979 4.39844 1.51562 5.57031C2.11458 4.88281 2.93229 4.53906 3.96875 4.53906C4.95833 4.53906 5.7474 4.88802 6.33594 5.58594C6.92969 6.28385 7.22656 7.1849 7.22656 8.28906C7.22656 9.46094 6.90625 10.3984 6.26562 11.1016C5.63021 11.8047 4.77604 12.1562 3.70312 12.1562C2.61458 12.1562 1.73177 11.7396 1.05469 10.9062C0.377604 10.0677 0.0390625 8.98958 0.0390625 7.67188V7.11719C0.0390625 5.02344 0.484375 3.42448 1.375 2.32031C2.27083 1.21094 3.60156 0.643229 5.36719 0.617188H5.625ZM3.72656 5.74219C3.23177 5.74219 2.77604 5.89062 2.35938 6.1875C1.94271 6.48438 1.65365 6.85677 1.49219 7.30469V7.83594C1.49219 8.77344 1.70312 9.52865 2.125 10.1016C2.54688 10.6745 3.07292 10.9609 3.70312 10.9609C4.35417 10.9609 4.86458 10.7214 5.23438 10.2422C5.60938 9.76302 5.79688 9.13542 5.79688 8.35938C5.79688 7.57812 5.60677 6.94792 5.22656 6.46875C4.85156 5.98438 4.35156 5.74219 3.72656 5.74219Z" fill="#A9A9A9"/>
<path d="M207.297 1.4375L202.586 12H201.07L205.766 1.8125H199.609V0.625H207.297V1.4375Z" fill="#A9A9A9"/>
<path d="M406.852 3.59375C406.852 4.16146 406.701 4.66667 406.398 5.10938C406.102 5.55208 405.698 5.89844 405.188 6.14844C405.781 6.40365 406.25 6.77604 406.594 7.26562C406.943 7.75521 407.117 8.3099 407.117 8.92969C407.117 9.91406 406.784 10.6979 406.117 11.2812C405.456 11.8646 404.583 12.1562 403.5 12.1562C402.406 12.1562 401.529 11.8646 400.867 11.2812C400.211 10.6927 399.883 9.90885 399.883 8.92969C399.883 8.3151 400.049 7.76042 400.383 7.26562C400.721 6.77083 401.188 6.39583 401.781 6.14062C401.276 5.89062 400.878 5.54427 400.586 5.10156C400.294 4.65885 400.148 4.15625 400.148 3.59375C400.148 2.63542 400.456 1.875 401.07 1.3125C401.685 0.75 402.495 0.46875 403.5 0.46875C404.5 0.46875 405.307 0.75 405.922 1.3125C406.542 1.875 406.852 2.63542 406.852 3.59375ZM405.672 8.89844C405.672 8.26302 405.469 7.74479 405.062 7.34375C404.661 6.94271 404.135 6.74219 403.484 6.74219C402.833 6.74219 402.31 6.9401 401.914 7.33594C401.523 7.73177 401.328 8.2526 401.328 8.89844C401.328 9.54427 401.518 10.0521 401.898 10.4219C402.284 10.7917 402.818 10.9766 403.5 10.9766C404.177 10.9766 404.708 10.7917 405.094 10.4219C405.479 10.0469 405.672 9.53906 405.672 8.89844ZM403.5 1.65625C402.932 1.65625 402.471 1.83333 402.117 2.1875C401.768 2.53646 401.594 3.01302 401.594 3.61719C401.594 4.19531 401.766 4.66406 402.109 5.02344C402.458 5.3776 402.922 5.55469 403.5 5.55469C404.078 5.55469 404.539 5.3776 404.883 5.02344C405.232 4.66406 405.406 4.19531 405.406 3.61719C405.406 3.03906 405.227 2.56771 404.867 2.20312C404.508 1.83854 404.052 1.65625 403.5 1.65625Z" fill="#A9A9A9"/>
<path d="M605.492 7C605.19 7.35938 604.828 7.64844 604.406 7.86719C603.99 8.08594 603.531 8.19531 603.031 8.19531C602.375 8.19531 601.802 8.03385 601.312 7.71094C600.828 7.38802 600.453 6.9349 600.188 6.35156C599.922 5.76302 599.789 5.11458 599.789 4.40625C599.789 3.64583 599.932 2.96094 600.219 2.35156C600.51 1.74219 600.922 1.27604 601.453 0.953125C601.984 0.630208 602.604 0.46875 603.312 0.46875C604.438 0.46875 605.323 0.890625 605.969 1.73438C606.62 2.57292 606.945 3.71875 606.945 5.17188V5.59375C606.945 7.80729 606.508 9.42448 605.633 10.4453C604.758 11.4609 603.438 11.9818 601.672 12.0078H601.391V10.7891H601.695C602.888 10.7682 603.805 10.4583 604.445 9.85938C605.086 9.25521 605.435 8.30208 605.492 7ZM603.266 7C603.75 7 604.195 6.85156 604.602 6.55469C605.013 6.25781 605.312 5.89062 605.5 5.45312V4.875C605.5 3.92708 605.294 3.15625 604.883 2.5625C604.471 1.96875 603.951 1.67188 603.32 1.67188C602.685 1.67188 602.174 1.91667 601.789 2.40625C601.404 2.89062 601.211 3.53125 601.211 4.32812C601.211 5.10417 601.396 5.74479 601.766 6.25C602.141 6.75 602.641 7 603.266 7Z" fill="#A9A9A9"/>
<path d="M799.711 12H798.258V2.36719L795.344 3.4375V2.125L799.484 0.570312H799.711V12ZM811.078 7.14844C811.078 8.84115 810.789 10.099 810.211 10.9219C809.633 11.7448 808.729 12.1562 807.5 12.1562C806.286 12.1562 805.388 11.7552 804.805 10.9531C804.221 10.1458 803.919 8.94271 803.898 7.34375V5.41406C803.898 3.74219 804.188 2.5 804.766 1.6875C805.344 0.875 806.25 0.46875 807.484 0.46875C808.708 0.46875 809.609 0.861979 810.188 1.64844C810.766 2.42969 811.062 3.63802 811.078 5.27344V7.14844ZM809.633 5.17188C809.633 3.94792 809.461 3.05729 809.117 2.5C808.773 1.9375 808.229 1.65625 807.484 1.65625C806.745 1.65625 806.206 1.9349 805.867 2.49219C805.529 3.04948 805.354 3.90625 805.344 5.0625V7.375C805.344 8.60417 805.521 9.51302 805.875 10.1016C806.234 10.6849 806.776 10.9766 807.5 10.9766C808.214 10.9766 808.742 10.7005 809.086 10.1484C809.435 9.59635 809.617 8.72656 809.633 7.53906V5.17188Z" fill="#A9A9A9"/>
<path d="M999.711 12H998.258V2.36719L995.344 3.4375V2.125L999.484 0.570312H999.711V12ZM1008.7 12H1007.24V2.36719L1004.33 3.4375V2.125L1008.47 0.570312H1008.7V12Z" fill="#A9A9A9"/>
<path d="M1199.71 12H1198.26V2.36719L1195.34 3.4375V2.125L1199.48 0.570312H1199.71V12ZM1211.4 12H1203.95V10.9609L1207.88 6.58594C1208.47 5.92448 1208.87 5.38802 1209.09 4.97656C1209.31 4.5599 1209.42 4.13021 1209.42 3.6875C1209.42 3.09375 1209.24 2.60677 1208.88 2.22656C1208.52 1.84635 1208.04 1.65625 1207.45 1.65625C1206.73 1.65625 1206.17 1.86198 1205.77 2.27344C1205.37 2.67969 1205.17 3.2474 1205.17 3.97656H1203.73C1203.73 2.92969 1204.06 2.08333 1204.73 1.4375C1205.41 0.791667 1206.32 0.46875 1207.45 0.46875C1208.5 0.46875 1209.34 0.747396 1209.95 1.30469C1210.57 1.85677 1210.88 2.59375 1210.88 3.51562C1210.88 4.63542 1210.16 5.96875 1208.73 7.51562L1205.69 10.8203H1211.4V12Z" fill="#A9A9A9"/>
<path d="M1399.71 12H1398.26V2.36719L1395.34 3.4375V2.125L1399.48 0.570312H1399.71V12ZM1406.05 5.60938H1407.13C1407.82 5.59896 1408.35 5.41927 1408.74 5.07031C1409.13 4.72135 1409.33 4.25 1409.33 3.65625C1409.33 2.32292 1408.66 1.65625 1407.34 1.65625C1406.71 1.65625 1406.21 1.83594 1405.84 2.19531C1405.47 2.54948 1405.28 3.02083 1405.28 3.60938H1403.84C1403.84 2.70833 1404.16 1.96094 1404.82 1.36719C1405.48 0.768229 1406.32 0.46875 1407.34 0.46875C1408.41 0.46875 1409.25 0.752604 1409.86 1.32031C1410.47 1.88802 1410.77 2.67708 1410.77 3.6875C1410.77 4.18229 1410.61 4.66146 1410.29 5.125C1409.97 5.58854 1409.54 5.9349 1408.98 6.16406C1409.61 6.36198 1410.09 6.6901 1410.43 7.14844C1410.77 7.60677 1410.95 8.16667 1410.95 8.82812C1410.95 9.84896 1410.61 10.6589 1409.95 11.2578C1409.28 11.8568 1408.41 12.1562 1407.34 12.1562C1406.28 12.1562 1405.41 11.8672 1404.73 11.2891C1404.07 10.7109 1403.73 9.94792 1403.73 9H1405.19C1405.19 9.59896 1405.38 10.0781 1405.77 10.4375C1406.16 10.7969 1406.69 10.9766 1407.34 10.9766C1408.04 10.9766 1408.58 10.7943 1408.95 10.4297C1409.32 10.0651 1409.5 9.54167 1409.5 8.85938C1409.5 8.19792 1409.3 7.6901 1408.89 7.33594C1408.48 6.98177 1407.9 6.79948 1407.13 6.78906H1406.05V5.60938Z" fill="#A9A9A9"/>
</svg>
